<svg xmlns="http://www.w3.org/2000/svg" viewBox="0 0 1105.68 362.91"><defs><style>.cls-1{fill:#0052cc;stroke:#fff;stroke-miterlimit:10;}</style></defs><g id="Layer_1" data-name="Layer 1"><polygon class="cls-1" points="325.78 135.49 248.48 212.79 217.77 182.07 293.89 105.95 255.12 67.17 178.99 143.3 151.3 115.6 227.42 39.48 188.65 0.71 111.29 78.07 80.42 108.94 0.71 188.65 39.48 227.42 117.34 149.56 145.03 177.26 67.17 255.12 105.95 293.89 183.81 216.03 214.52 246.75 137.84 323.43 176.61 362.2 255.15 283.67 286.02 252.8 364.55 174.26 325.78 135.49"/><path d="M496.57,392.13l37.25-6v38.75h44.75v31H533.82v46.25q0,11.76,4.12,18.75t16.63,7a71.13,71.13,0,0,0,12.37-1.13,63.31,63.31,0,0,0,11.63-3.12l5.25,29a104.71,104.71,0,0,1-15,4.75,87.59,87.59,0,0,1-20.25,2q-15.26,0-25.25-4.13a39.55,39.55,0,0,1-16-11.5,42.84,42.84,0,0,1-8.38-17.87,105.74,105.74,0,0,1-2.37-23.25Z" transform="translate(-68.88 -274.62)"/><path d="M613.82,556.38v-188l37.25-6v63a77.44,77.44,0,0,1,9.62-2.38,60.41,60.41,0,0,1,11.38-1.12q16,0,26.62,4.37a41.43,41.43,0,0,1,17,12.38,47.91,47.91,0,0,1,9,19,105.72,105.72,0,0,1,2.63,24.5v74.25H690.07V486.63q0-18-4.63-25.5t-17.12-7.5a48,48,0,0,0-9.38.87q-4.38.88-7.87,1.88v100Z" transform="translate(-68.88 -274.62)"/><path d="M889.06,490.38a85.44,85.44,0,0,1-4.5,28.37,61.51,61.51,0,0,1-13,22,58.46,58.46,0,0,1-20.37,14.13,68.1,68.1,0,0,1-26.63,5,67.32,67.32,0,0,1-26.37-5,58.41,58.41,0,0,1-20.38-14.13,64.58,64.58,0,0,1-13.25-22,81.27,81.27,0,0,1-4.75-28.37,78.54,78.54,0,0,1,4.88-28.25,64.06,64.06,0,0,1,13.5-21.75,60.69,60.69,0,0,1,20.5-14,66,66,0,0,1,25.87-5,66.75,66.75,0,0,1,26.13,5,59.48,59.48,0,0,1,20.37,14,63.54,63.54,0,0,1,13.25,21.75A80.32,80.32,0,0,1,889.06,490.38Zm-38,0q0-17.25-6.87-27.13t-19.63-9.87q-12.75,0-19.75,9.87t-7,27.13q0,17.25,7,27.37t19.75,10.13q12.75,0,19.63-10.13T851.06,490.38Z" transform="translate(-68.88 -274.62)"/><path d="M960.06,472.1q5.51-6,11.36-12.42t11.37-12.8q5.49-6.35,10.36-12.06t8.37-9.94h44.29q-13.24,15.22-25.87,29.06T992.31,482.5a171.49,171.49,0,0,1,15.5,16.16q8,9.39,15.5,19.41t13.75,20q6.26,10,10.5,18.28h-42.83q-4-6.51-9.11-14.41t-10.86-15.79Q979,518.29,972.66,511a102,102,0,0,0-12.6-12.28v57.64H922.81v-188l37.25-6Z" transform="translate(-68.88 -274.62)"/><path d="M1117.31,421.38q16.5,0,27.5,3.75t17.63,10.75a39.59,39.59,0,0,1,9.37,17,84,84,0,0,1,2.75,22.25v77.5q-8,1.75-22.25,4.12a213,213,0,0,1-34.5,2.38,109.29,109.29,0,0,1-23.12-2.25,50.13,50.13,0,0,1-17.88-7.38,33.71,33.71,0,0,1-11.5-13.37q-4-8.25-4-20.25,0-11.49,4.63-19.5a35.58,35.58,0,0,1,12.37-12.75,56.16,56.16,0,0,1,17.75-6.88,100,100,0,0,1,20.75-2.12,119.74,119.74,0,0,1,12.88.62,58.24,58.24,0,0,1,9.12,1.63v-3.5q0-9.5-5.75-15.25t-20-5.75a128.33,128.33,0,0,0-18.75,1.37,81.06,81.06,0,0,0-16,3.88l-4.75-30c2.17-.66,4.88-1.38,8.13-2.13s6.79-1.41,10.62-2,7.88-1.08,12.13-1.5S1113,421.38,1117.31,421.38Zm3,109q5.51,0,10.5-.25a69.94,69.94,0,0,0,8-.75V501.13q-2.25-.5-6.75-1a76,76,0,0,0-8.25-.5,74.87,74.87,0,0,0-9.87.62,26,26,0,0,0-8.13,2.38,14,14,0,0,0-5.5,4.75,13.26,13.26,0,0,0-2,7.5q0,8.76,5.88,12.12T1120.31,530.38Z" transform="translate(-68.88 -274.62)"/></g></svg>